<svg xmlns="http://www.w3.org/2000/svg" version="1.1" xmlns:xlink="http://www.w3.org/1999/xlink" xmlns:svgjs="http://svgjs.dev/svgjs" width="100%" height="100%" viewBox="0 0 1000 600"><rect width="1000" height="600" x="0" y="0" fill="#714ac2"/><g><rect width="333.3333333333333" height="333.3333333333333" rx="13.333333333333334" ry="13.333333333333334" y="393.1344542615564" fill="#222222" transform="matrix(0.3370069710085176,0,0,0.3370069710085176,0,111.34313053992845)" x="370.9122009277344"/><path d="M458.6407276249724 634.8010887657583L458.6407276249724 634.8010887657583Q443.62159526422465 634.8010887657583 432.62031996813556 630.5600174197298Q421.65093242652785 626.2870583192198 415.7198100929842 619.0166502974564L415.7198100929842 619.0166502974564L415.7198100929842 632.1225173893192Q413.23256524343356 632.1225173893192 410.49021835803165 632.1225173893192Q407.74787147262975 632.1225173893192 405.22873886859776 632.1225173893192Q402.70960626456576 632.1225173893192 400.92389201360635 632.1225173893192L400.92389201360635 632.1225173893192L400.92389201360635 586.3954774629663L414.3486366502832 586.3954774629663Q414.3486366502832 587.1607835705202 414.3486366502832 588.0217529415186Q414.3486366502832 588.8508345580353 414.47618766820887 589.6480284200709L414.47618766820887 589.6480284200709Q415.36904479368854 604.539609762893 424.2976160484855 613.404405508727Q433.19429954880104 622.269201254561 452.4863910100588 622.269201254561L452.4863910100588 622.269201254561Q467.3779723528809 622.269201254561 476.68919666145484 614.8712422148722Q486.0004209700288 607.4732831751833 486.0004209700288 595.2283854543189L486.0004209700288 595.2283854543189Q486.0004209700288 587.1607835705202 481.6955741150374 582.026855099012Q477.35883950556456 576.8610388730224 470.08843148380134 573.3852736345477Q462.7861357075567 569.9095083960733 453.69812568035263 566.9758349837828Q444.64200340763 564.0740493259739 435.2032280811304 560.5026208240549L435.2032280811304 560.5026208240549Q418.6215957507932 554.2207331912157 410.1713408132175 545.6429272357143Q401.68919812116036 537.065121280213 401.68919812116036 522.8112950270192L401.68919812116036 522.8112950270192Q401.68919812116036 512.1607850302257 407.2376674009271 503.55109132024296Q412.78613668069374 494.9095098557788 423.11776913267306 489.87124464771483Q433.417513830171 484.8010916851694 447.6713400833647 484.8010916851694L447.6713400833647 484.8010916851694Q458.76827864289805 484.8010916851694 468.11139070595345 487.28833653472Q477.4863905234903 489.7436936297891 486.31929851484296 497.36486695084795L486.31929851484296 497.36486695084795Q486.31929851484296 495.35593841851863 486.31929851484296 491.72073440763705Q486.31929851484296 488.053642642274 486.31929851484296 488.053642642274L486.31929851484296 488.053642642274Q488.1369005202838 488.053642642274 490.4965943519087 488.053642642274Q492.82440042905216 488.053642642274 495.3435330330842 488.11741815123685Q497.8945533915976 488.18119366019965 500.22235946874105 488.18119366019965L500.22235946874105 488.18119366019965L500.22235946874105 526.6378255647894L487.1164923768784 526.6378255647894Q487.02082911343416 525.394203140014 486.9570536044713 524.2781317331645Q486.8932780955085 523.1620603263149 486.8932780955085 522.0459889194653L486.8932780955085 522.0459889194653Q486.4468495327686 510.3750707792664 476.8486354338619 503.55109132024296Q467.2823090894366 496.6952241067382 451.5935338845791 496.6952241067382L451.5935338845791 496.6952241067382Q437.33970763138535 496.6952241067382 429.2721057475867 503.32787703887305Q421.20450386378803 509.9286422165265 421.20450386378803 520.1327236505801L421.20450386378803 520.1327236505801Q421.20450386378803 528.0727745164531 425.7325650001493 533.1748152334801Q430.29251389099204 538.2768559505068 437.9455749665323 541.7207334345001Q445.630523796554 545.1327231640116 455.2287378954607 548.0982843307836Q464.795064239886 551.0638454975553 474.9034824104954 554.8903760353255L474.9034824104954 554.8903760353255Q484.2147067190694 558.3661412737999 491.2619004594627 563.404406481864Q498.34098195433745 568.4426716899279 502.29506351003323 575.617416448247Q506.28103282021044 582.7921612065659 506.28103282021044 592.9962426406196L506.28103282021044 592.9962426406196Q506.28103282021044 604.7628240442627 500.3499104866668 614.2334871252438Q494.41878815312305 623.704150206225 483.7045026473667 629.2526194859915Q472.9902171416104 634.8010887657583 458.6407276249724 634.8010887657583ZM655.2925095118753 633.2385887961689L633.513173201067 633.2385887961689L556.4085828649991 506.10211167875644Q556.2810318470735 506.10211167875644 556.2172563381106 506.10211167875644Q556.1853685836292 506.10211167875644 556.1853685836292 506.10211167875644L556.1853685836292 506.10211167875644L556.1853685836292 612.5115483832474Q556.1853685836292 618.7934360160866 558.991490977994 619.9095074229363Q561.7657256178773 621.0255788297859 570.4073070823415 621.0255788297859L570.4073070823415 621.0255788297859L576.4659804338108 621.0255788297859L576.4659804338108 632.1225173893192Q570.4073070823415 632.1225173893192 564.9226133115376 631.9949663713935Q559.4379195407338 631.8993031079492 550.8920013397138 631.8993031079492L550.8920013397138 631.8993031079492Q541.8358790669912 631.8993031079492 535.0437873624492 631.9949663713935Q528.2516956579072 632.1225173893192 521.2045019175139 632.1225173893192L521.2045019175139 632.1225173893192L521.2045019175139 621.0255788297859L528.379246675833 621.0255788297859Q534.7567975721165 621.0255788297859 537.3397056851113 620.132721704306Q539.9226137981061 619.2398645788264 540.4328178698088 617.1990482920157Q540.9430219415115 615.1901197596865 540.9430219415115 611.8419055391375L540.9430219415115 611.8419055391375L540.9430219415115 507.7921626662715Q540.9430219415115 501.0638464706924 538.7427668822937 499.8521118003985Q536.5425118230759 498.60848937562326 528.6981242206471 498.60848937562326L528.6981242206471 498.60848937562326L521.746593743698 498.60848937562326Q521.746593743698 497.5880812322179 521.746593743698 496.1531322805541Q521.746593743698 494.68629557440886 521.8103692526608 493.0600200958566Q521.8741447616237 491.4337446173043 521.8741447616237 489.96690791115907Q521.8741447616237 488.50007120501385 521.8741447616237 487.5115508160899L521.8741447616237 487.5115508160899Q521.8741447616237 487.5115508160899 524.6802671559884 487.5115508160899Q527.4863895503532 487.5115508160899 531.3448078426047 487.5115508160899Q535.2032261348563 487.5115508160899 538.6471036188494 487.57532632505274Q542.0590933483611 487.6072140795341 543.1751647552107 487.6072140795341L543.1751647552107 487.6072140795341Q545.40730756891 487.6072140795341 548.2134299632747 487.6072140795341Q551.0195523576394 487.6072140795341 554.0488890333742 487.57532632505274Q557.0782257091089 487.5115508160899 559.916235857955 487.5115508160899Q562.7861337612826 487.5115508160899 565.1458275929076 487.5115508160899L565.1458275929076 487.5115508160899Q565.1458275929076 487.5115508160899 569.1955724120476 494.239867011669Q573.2134294767062 500.96818320724816 579.9417456722854 511.9375707488559Q586.6700618678644 522.938846044945 594.6420004882189 536.1722641547333Q602.582051354092 549.3737945100402 610.5539899744464 562.5753248653472Q618.4940408403194 575.7449674661727 625.2223570358985 586.7143550077803Q631.9506732314776 597.7156303038694 636.0004180506177 604.4439464994487Q640.0182751152763 611.1722626950277 640.0182751152763 611.1722626950277L640.0182751152763 611.1722626950277L640.0182751152763 506.6760912594219Q639.922611851832 500.8406321893225 637.1164894574673 499.72456078247285Q634.3103670631025 498.60848937562326 625.8919998800083 498.60848937562326L625.8919998800083 498.60848937562326L620.0884285643903 498.60848937562326L620.0884285643903 487.5115508160899Q628.921336555743 487.5115508160899 634.9800099072122 487.670989588497Q641.0386832586817 487.8304283609041 645.9812852033015 487.8304283609041L645.9812852033015 487.8304283609041Q647.1930198735953 487.8304283609041 651.6254177465123 487.79854060642265Q656.0578156194294 487.73476509745984 661.3192951088633 487.670989588497Q666.6126623527787 487.6072140795341 670.4073051360674 487.57532632505274Q674.2338356738376 487.5115508160899 674.2338356738376 487.5115508160899L674.2338356738376 487.5115508160899L674.2338356738376 498.60848937562326L667.1547541789628 498.60848937562326Q658.2899584331287 498.60848937562326 656.7912339725021 500.5536423989898Q655.2925095118753 502.5306831768376 655.2925095118753 506.452876978052L655.2925095118753 506.452876978052Q655.2925095118753 506.32532596012635 655.2925095118753 513.1811931736311Q655.2925095118753 520.0051726326545 655.2925095118753 531.3253254735578Q655.2925095118753 542.6773660689425 655.2925095118753 556.1658862145822Q655.2925095118753 569.6862941147033 655.2925095118753 583.2385897693059Q655.2925095118753 596.8227731783898 655.2925095118753 608.1429260192931Q655.2925095118753 619.4630788601964 655.2925095118753 626.3508338281827Q655.2925095118753 633.2385887961689 655.2925095118753 633.2385887961689L655.2925095118753 633.2385887961689Z " fill="#714ac2" transform="matrix(0.3370069710085176,0,0,0.3370069710085176,0,111.34313053992845)"/><path d="M845.1244453185561 634.3559868530133L845.1244453185561 634.3559868530133Q830.1498799215633 634.3559868530133 819.1812492167595 630.1275002334801Q808.2444116444335 625.8672204814695 802.3308890035828 618.6183862765556L802.3308890035828 618.6183862765556L802.3308890035828 631.6853637248871Q799.8510246703229 631.6853637248871 797.1168152772414 631.6853637248871Q794.3826058841598 631.6853637248871 791.8709484184221 631.6853637248871Q789.3592909526844 631.6853637248871 787.5788755339337 631.6853637248871L787.5788755339337 631.6853637248871L787.5788755339337 586.0940117518769L800.963784307042 586.0940117518769Q800.963784307042 586.8570469313415 800.963784307042 587.7154615082391Q800.963784307042 588.542082952659 801.0909568369527 589.3369112646014L801.0909568369527 589.3369112646014Q801.9811645463282 604.1843041316836 810.8832416400819 613.0227949604819Q819.753525601358 621.8612857892801 838.9883707503616 621.8612857892801L838.9883707503616 621.8612857892801Q853.8357636174437 621.8612857892801 863.1193583009298 614.4852790544558Q872.4029529844158 607.1092723196311 872.4029529844158 594.9007094481974L872.4029529844158 594.9007094481974Q872.4029529844158 586.8570469313415 868.1108800999274 581.738352602433Q863.7870140829614 576.5878651410469 856.5381798780476 573.1224137009785Q849.2575525406561 569.6569622609102 840.1965097845139 566.7319940729624Q831.1672601608493 563.8388190174925 821.7564929474526 560.277988179991L821.7564929474526 560.277988179991Q805.2240640590528 554.0147410818856 796.7988839524644 545.4623884453865Q788.3419107133983 536.9100358088874 788.3419107133983 522.6985055913591L788.3419107133983 522.6985055913591Q788.3419107133983 512.0795993438101 793.8739157645167 503.49545357483316Q799.4059208156351 494.87951467337865 809.7068957384073 489.8561997419033Q819.9760775287018 484.8010916779503 834.1876077462301 484.8010916779503L834.1876077462301 484.8010916779503Q845.2516178484669 484.8010916779503 854.5670056644307 487.28095601121026Q863.9141866128721 489.72902721199256 872.7208843091928 497.32758587416095L872.7208843091928 497.32758587416095Q872.7208843091928 495.3246185280663 872.7208843091928 491.70020142560946Q872.7208843091928 488.0439911906749 872.7208843091928 488.0439911906749L872.7208843091928 488.0439911906749Q874.5330928604212 488.0439911906749 876.8857846637704 488.0439911906749Q879.2066833346419 488.0439911906749 881.7183408003796 488.1075774556303Q884.2617913985949 488.17116372058564 886.5826900694665 488.17116372058564L886.5826900694665 488.17116372058564L886.5826900694665 526.5136814886821L873.515712621135 526.5136814886821Q873.420333223702 525.2737493220521 873.3567469587466 524.1609896853329Q873.2931606937912 523.0482300486137 873.2931606937912 521.9354704118945L873.2931606937912 521.9354704118945Q872.8480568391035 510.29918392505925 863.2783239633183 503.49545357483316Q853.7403842200106 496.6599300921294 838.0981630409863 496.6599300921294L838.0981630409863 496.6599300921294Q823.886632823458 496.6599300921294 815.8429703066018 503.2729016474893Q807.7993077897459 509.85408007037154 807.7993077897459 520.027882463233L807.7993077897459 520.027882463233Q807.7993077897459 527.9443724501782 812.313932601578 533.031273646609Q816.860350545888 538.1181748430397 824.4907023405341 541.5518331506305Q832.1528472676578 544.9536983257435 841.7225801434431 547.9104596461689Q851.2605198867507 550.8672209665942 861.338942882179 554.6823968639171L861.338942882179 554.6823968639171Q870.6225375656651 558.1478483039856 877.6488198432351 563.1711632354609Q884.7068952532826 568.1944781669363 888.6492436805164 575.3479329744168Q892.6233852402279 582.5013877818976 892.6233852402279 592.6751901747591L892.6233852402279 592.6751901747591Q892.6233852402279 604.4068560590274 886.7098625993772 613.8494164049018Q880.7963399585265 623.2919767507765 870.113847446022 628.8239818018949Q859.4313549335175 634.3559868530133 845.1244453185561 634.3559868530133ZM965.4932448790978 634.801090707701L965.4932448790978 634.801090707701Q949.7556443026403 634.801090707701 937.8014264910282 628.2199122848185Q925.8154155469383 621.6387338619365 919.0752714616676 609.716309182802Q912.3033342439192 597.8256776361452 912.3033342439192 581.738352602433L912.3033342439192 581.738352602433Q912.3033342439192 565.6192344362432 919.0752714616676 553.6650166246311Q925.8154155469383 541.7107988130189 937.8332196235058 535.1614135226143Q949.8510237000735 528.6438213646875 965.4932448790978 528.6438213646875L965.4932448790978 528.6438213646875Q981.262638588033 528.6438213646875 993.2804426646006 535.1614135226143Q1005.2982467411682 541.7107988130189 1012.1019770913942 553.6014303596758Q1018.9375005740981 565.5238550388101 1018.9375005740981 581.738352602433L1018.9375005740981 581.738352602433Q1018.9375005740981 597.6985051062343 1012.1655633563496 609.6527229178466Q1005.4254192710789 621.6387338619365 993.4076151945114 628.2199122848185Q981.3898111179439 634.801090707701 965.4932448790978 634.801090707701ZM965.4932448790978 623.1965973533433L965.4932448790978 623.1965973533433Q980.9447072632562 623.1965973533433 990.1965088142645 611.9100353237627Q999.4801034977505 600.6234732941821 999.4801034977505 581.6111800725223L999.4801034977505 581.6111800725223Q999.4801034977505 562.5035074534294 990.2600950792198 551.3123248212819Q981.0400866606892 540.152935321612 965.4932448790978 540.152935321612L965.4932448790978 540.152935321612Q949.9781962299842 540.152935321612 940.7899809439311 551.2805316888041Q931.6335587903559 562.3763349235187 931.6335587903559 581.6111800725223L931.6335587903559 581.6111800725223Q931.6335587903559 600.6234732941821 940.7899809439311 611.9100353237627Q949.9781962299842 623.1965973533433 965.4932448790978 623.1965973533433ZM1088.4690813028103 634.801090707701L1088.4690813028103 634.801090707701Q1072.922239521219 634.801090707701 1061.2859530343837 628.2834985497741Q1049.6814596800261 621.7341132593695 1043.29104005201 609.9388611101458Q1036.9324135564716 598.1436089609222 1036.9324135564716 582.4060083844645L1036.9324135564716 582.4060083844645Q1036.9324135564716 567.4314429874717 1043.1956606545768 555.5090183083372Q1049.4589077526823 543.6183867616803 1060.5229178549191 536.6874838815436Q1071.586927957156 529.7565810014066 1086.116389499461 529.7565810014066L1086.116389499461 529.7565810014066Q1095.1774322556032 529.7565810014066 1103.252887904937 532.1092728047558Q1111.3601366867485 534.4301714756275 1116.7331760754785 541.0431430309873L1116.7331760754785 541.0431430309873L1119.5309717335153 532.204652202189Q1120.1032481181137 532.204652202189 1122.3923536565076 532.2682384671443Q1124.6814591949014 532.3318247320997 1126.9705647332953 532.3318247320997Q1129.2596702716892 532.3318247320997 1129.8001535238097 532.4272041295328L1129.8001535238097 532.4272041295328L1129.8001535238097 567.304270457561L1118.8633159514839 567.304270457561Q1118.4182120967962 553.8875685519749 1110.883239699583 547.3063901290927Q1103.3164741698924 540.6934185737327 1090.344876118994 540.6934185737327L1090.344876118994 540.6934185737327Q1074.480103012626 540.6934185737327 1065.6098190513499 551.6620492785364Q1056.707741957596 562.5988868508625 1056.707741957596 581.6111800725223L1056.707741957596 581.6111800725223Q1056.707741957596 600.8460252215259 1065.8641641111712 612.0690009861512Q1075.0523793972243 623.2919767507765 1090.567428046338 623.2919767507765L1090.567428046338 623.2919767507765Q1101.7586106784856 623.2919767507765 1109.2935830756985 617.3148678449704Q1116.8603486053892 611.3377589391641 1119.8806961907699 600.4009213668382L1119.8806961907699 600.4009213668382L1132.9476736391014 602.6264406402765Q1129.482222199033 617.9507304945241 1117.7823494472423 626.3759106011125Q1106.1142698279293 634.801090707701 1088.4690813028103 634.801090707701ZM1147.2545832540627 631.6853637248871L1147.2545832540627 631.6853637248871L1147.2545832540627 621.5115613320256Q1155.3936251683517 621.5115613320256 1158.8272834759425 620.9074918149495Q1162.2291486510558 620.2716291653956 1163.023976962998 618.7137656739887Q1163.7870121424626 617.1559021825819 1163.7870121424626 614.2627271271119L1163.7870121424626 614.2627271271119L1163.7870121424626 545.7167335052081Q1163.7870121424626 542.6010065223943 1160.226181304961 542.1559026677066Q1156.6335573349818 541.7107988130189 1147.7950665061835 541.5836262831081L1147.7950665061835 541.5836262831081Q1147.7950665061835 539.0401756848928 1147.7950665061835 536.5603113516328Q1147.7950665061835 534.1122401508505 1147.7950665061835 531.6641689500682L1147.7950665061835 531.6641689500682Q1152.4050707154488 531.6641689500682 1156.7607298648927 531.6641689500682Q1161.1163890143364 531.6641689500682 1165.2494962364362 531.5369964201575L1165.2494962364362 531.5369964201575Q1169.7005347833133 531.4098238902467 1173.960814535324 531.3144444928137Q1178.2210942873346 531.1872719629029 1182.5767534367785 531.0918925654698L1182.5767534367785 531.0918925654698L1182.5767534367785 614.7078309817996Q1182.5767534367785 619.731145913275 1186.4237224665792 620.6213536226503Q1190.2706914963799 621.5115613320256 1199.331734252522 621.5115613320256L1199.331734252522 621.5115613320256L1199.331734252522 631.6853637248871Q1196.4385591970522 631.6853637248871 1191.5742099279653 631.6217774599318Q1186.7098606588784 631.5581911949764 1181.6229594624476 631.5581911949764Q1176.5360582660169 631.5581911949764 1172.8480548986047 631.5263980624986Q1169.1600515311925 631.4628117975433 1168.492395749161 631.4628117975433L1168.492395749161 631.4628117975433Q1162.2291486510558 631.4628117975433 1157.3012131170133 631.5581911949764Q1152.4050707154488 631.6853637248871 1147.2545832540627 631.6853637248871ZM1172.2757785140063 509.6315281430277L1172.2757785140063 509.6315281430277Q1167.3796361124416 509.6315281430277 1164.3910816595387 506.73835308755775Q1161.4343203391134 503.81338489961007 1161.4343203391134 499.10800129291164L1161.4343203391134 499.10800129291164Q1161.4343203391134 494.434410818691 1164.3910816595387 491.6366151606541Q1167.3796361124416 488.8388195026172 1172.1803991165732 488.8388195026172L1172.1803991165732 488.8388195026172Q1177.1083346506155 488.8388195026172 1180.0015097060855 491.6366151606541Q1182.8946847615553 494.434410818691 1182.8946847615553 499.23517382282245L1182.8946847615553 499.23517382282245Q1182.8946847615553 503.81338489961007 1180.0015097060855 506.73835308755775Q1177.1083346506155 509.6315281430277 1172.2757785140063 509.6315281430277ZM1248.7382621228553 634.0380555282363L1248.7382621228553 634.0380555282363Q1232.7463164865762 634.0380555282363 1223.1447904783136 625.4221166267819Q1213.5432644700504 616.8061777253272 1213.5432644700504 603.5166483496521L1213.5432644700504 603.5166483496521Q1213.5432644700504 589.2097387346905 1224.9252058970642 580.4984204358029Q1236.3389404565555 571.7871021369153 1256.7819246397114 571.7871021369153L1256.7819246397114 571.7871021369153Q1263.7128275198484 571.7871021369153 1270.9298685922845 572.8362755086794Q1278.1469096647204 573.8854488804432 1285.522916399545 575.7930368291047L1285.522916399545 575.7930368291047L1285.522916399545 559.2606079407049Q1285.522916399545 549.1821849452765 1278.7509791817965 543.7773524240688Q1271.9790419640483 538.3407267703835 1258.0218568063415 538.3407267703835L1258.0218568063415 538.3407267703835Q1235.0990082899257 538.3407267703835 1230.7433491404818 556.9079161373556L1230.7433491404818 556.9079161373556L1220.4741673501874 555.6679839707256L1221.9048583116833 536.0198280995121Q1229.058313119164 532.7769285867874 1238.6916322599047 530.7103749757375Q1248.2931582681676 528.6438213646875 1260.1519966823469 528.6438213646875L1260.1519966823469 528.6438213646875Q1283.8378803782273 528.6438213646875 1294.0752690360441 537.2279671336644Q1304.2808645613832 545.8439060351188 1304.2808645613832 564.2839228721801L1304.2808645613832 564.2839228721801L1304.2808645613832 606.6323753324657Q1304.2808645613832 614.3581065245451 1305.0756928733254 617.5056266398365Q1305.870521185268 620.6213536226503 1308.0960404587063 621.1936300072487Q1310.3215597321446 621.7341132593695 1314.8043914114992 621.7341132593695L1314.8043914114992 621.7341132593695L1319.8277063429746 621.7341132593695L1319.8277063429746 631.6853637248871Q1318.047290924224 631.5581911949764 1316.2350823729955 631.5581911949764Q1314.4546669542447 631.5581911949764 1312.674251535494 631.6217774599318Q1310.8938361167432 631.6853637248871 1309.0816275655147 631.6853637248871L1309.0816275655147 631.6853637248871Q1303.072725527231 631.8125362547978 1297.2545822838133 631.9079156522309Q1291.4364390403957 632.0350881821416 1286.1905721815765 632.1304675795748L1286.1905721815765 632.1304675795748L1286.1905721815765 616.8061777253272Q1279.4822212287836 625.3267372293487 1270.2622128102528 629.6823963787924Q1261.0422043917222 634.0380555282363 1248.7382621228553 634.0380555282363ZM1254.4292328363624 623.2919767507765L1254.4292328363624 623.2919767507765Q1261.709860173754 623.2919767507765 1268.8633149812345 620.239836032918Q1276.016769788715 617.1559021825819 1280.753946527891 611.1152070118203Q1285.522916399545 605.0745118410589 1285.522916399545 596.0452622173943L1285.522916399545 596.0452622173943L1285.522916399545 585.0766315125907Q1278.814565446752 583.1690435639291 1272.7738702759905 582.1834564571207Q1266.733175105229 581.1660762178346 1261.0422043917222 581.1660762178346L1261.0422043917222 581.1660762178346Q1247.6255024861362 581.1660762178346 1239.8679781615792 586.9206331962969Q1232.0786607045447 592.6751901747591 1232.0786607045447 602.9443719650535L1232.0786607045447 602.9443719650535Q1232.0786607045447 612.1325872511065 1238.3419078026502 617.7281785671803Q1244.6051549007555 623.2919767507765 1254.4292328363624 623.2919767507765ZM1330.0968881332692 631.6853637248871L1330.0968881332692 631.6853637248871Q1330.0968881332692 630.7951560155118 1330.0968881332692 629.4598444514486Q1330.0968881332692 628.0927397549078 1330.0650950007914 626.5984625284564Q1330.001508735836 625.1041853020049 1330.001508735836 623.7370806054641Q1330.001508735836 622.4017690414009 1330.001508735836 621.5115613320256L1330.001508735836 621.5115613320256Q1338.4902751073796 621.5115613320256 1341.9557265474482 620.4941810927394Q1345.4211779875166 619.5085939859312 1346.1524200345036 617.5056266398365Q1346.8836620814905 615.4708661612642 1346.8836620814905 612.4505185758835L1346.8836620814905 612.4505185758835L1346.8836620814905 502.9231771902347Q1346.8836620814905 498.7900699681348 1342.6233823294797 498.12241418610324Q1338.394895709947 497.4547584040717 1330.5419919879569 497.32758587416095L1330.5419919879569 497.32758587416095L1330.5419919879569 487.28095601121026Q1333.5623395733376 487.28095601121026 1336.3601352313744 487.21736974625486Q1339.1579308894113 487.1537834812995 1342.0193128124035 487.1537834812995Q1344.848901602918 487.1537834812995 1347.646697260955 487.1537834812995L1347.646697260955 487.1537834812995Q1351.9069770129659 487.05840408386644 1356.3262224273649 486.99481781891103Q1360.7454678417641 486.9312315539557 1365.5462308458957 486.83585215652255L1365.5462308458957 486.83585215652255L1365.5462308458957 613.6904507425133Q1365.5462308458957 619.1588695286764 1369.838303730384 620.3352154303511Q1374.1621697473502 621.5115613320256 1382.7463155163268 621.5115613320256L1382.7463155163268 621.5115613320256L1382.7463155163268 631.6853637248871Q1376.6102409481323 631.6853637248871 1370.5059595124155 631.6217774599318Q1364.4334712091763 631.5581911949764 1356.1672567649766 631.4628117975433L1356.1672567649766 631.4628117975433Q1347.9964217182096 631.4628117975433 1342.082899077359 631.5581911949764Q1336.1375833040306 631.6853637248871 1330.0968881332692 631.6853637248871ZM1573.886627972211 632.7981233616063L1552.203711622425 632.7981233616063L1475.2961241588882 506.0389041730485Q1475.200744761455 506.0389041730485 1475.1371584964998 506.0389041730485Q1475.0735722315444 506.0389041730485 1475.0735722315444 506.0389041730485L1475.0735722315444 506.0389041730485L1475.0735722315444 612.1325872511065Q1475.0735722315444 618.3958343492118 1477.871367889581 619.5085939859312Q1480.6691635476182 620.6213536226503 1489.2851024490726 620.6213536226503L1489.2851024490726 620.6213536226503L1495.3257976198342 620.6213536226503L1495.3257976198342 631.6853637248871Q1489.2851024490726 631.6853637248871 1483.784890530432 631.5581911949764Q1478.316471744269 631.4628117975433 1469.8277053727252 631.4628117975433L1469.8277053727252 631.4628117975433Q1460.7666626165828 631.4628117975433 1453.9947253988346 631.5581911949764Q1447.254581313564 631.6853637248871 1440.1965059035163 631.6853637248871L1440.1965059035163 631.6853637248871L1440.1965059035163 620.6213536226503L1447.349960710997 620.6213536226503Q1453.7403803390132 620.6213536226503 1456.3156240697062 619.731145913275Q1458.8590746679215 618.8409382038994 1459.3677647875645 616.8061777253272Q1459.8764549072075 614.8032103792327 1459.8764549072075 611.464931469075L1459.8764549072075 611.464931469075L1459.8764549072075 507.7239401943662Q1459.8764549072075 501.0155892415732 1457.6827287662468 499.8074502074209Q1455.5207957577638 498.56751804079096 1447.6996851682516 498.56751804079096L1447.6996851682516 498.56751804079096L1440.7687822881148 498.56751804079096Q1440.7687822881148 497.5501378015048 1440.7687822881148 496.1194468400086Q1440.7687822881148 494.6569627460348 1440.8323685530702 493.03551298967255Q1440.864161685548 491.41406323331023 1440.864161685548 489.9515791393364Q1440.864161685548 488.4890950453626 1440.864161685548 487.5035079385541L1440.864161685548 487.5035079385541Q1440.864161685548 487.5035079385541 1443.6619573435846 487.5035079385541Q1446.4597530016217 487.5035079385541 1450.3067220314224 487.5035079385541Q1454.1854841937006 487.5035079385541 1457.5873493688139 487.5670942035095Q1460.989214543927 487.5988873359872 1462.1019741806463 487.5988873359872L1462.1019741806463 487.5988873359872Q1464.3592865865621 487.5988873359872 1467.1570822445992 487.5988873359872Q1469.9230847701583 487.5988873359872 1472.943432355539 487.5670942035095Q1475.9637799409197 487.5035079385541 1478.825161863912 487.5035079385541Q1481.6865437869042 487.5035079385541 1484.0074424577758 487.5035079385541L1484.0074424577758 487.5035079385541Q1484.0074424577758 487.5035079385541 1488.0451702824425 494.2118588913471Q1492.0828981071095 500.9202098441401 1498.7594559274248 511.8570474164662Q1505.4678068802177 522.8256781212699 1513.416089999641 536.0198280995121Q1521.3643731190639 549.1821849452765 1529.2808631060093 562.3445417910409Q1537.229146225432 575.4751055043278 1543.9374971782252 586.4119430766536Q1550.6458481310183 597.3805737814575 1554.6517828232072 604.0889247342504Q1558.6895106478742 610.7972756870436 1558.6895106478742 610.7972756870436L1558.6895106478742 610.7972756870436L1558.6895106478742 506.61118055764695Q1558.5623381179635 500.79303731422937 1555.7645424599264 499.6802776775101Q1552.9985399343673 498.56751804079096 1544.6051529602566 498.56751804079096L1544.6051529602566 498.56751804079096L1538.787009716839 498.56751804079096L1538.787009716839 487.5035079385541Q1547.6255005456374 487.5035079385541 1553.6661957163988 487.6624736009426Q1559.7068908871602 487.821439263331 1564.6030332887249 487.821439263331L1564.6030332887249 487.821439263331Q1565.842965455355 487.821439263331 1570.262210869754 487.7896461308533Q1574.6814562841532 487.726059865898 1579.9273231429725 487.6624736009426Q1585.1731900017917 487.5988873359872 1588.9883658991146 487.5670942035095Q1592.77174866396 487.5035079385541 1592.77174866396 487.5035079385541L1592.77174866396 487.5035079385541L1592.77174866396 498.56751804079096L1585.74546638639 498.56751804079096Q1576.9069755575915 498.56751804079096 1575.3809051986623 500.50689912193013Q1573.886627972211 502.478073335547 1573.886627972211 506.3886286303031L1573.886627972211 506.3886286303031Q1573.886627972211 506.26145610039237 1573.886627972211 513.0969795830961Q1573.886627972211 519.9007099333222 1573.886627972211 531.1872719629029Q1573.886627972211 542.5056271249612 1573.886627972211 555.9541221630249Q1573.886627972211 569.4344103335663 1573.886627972211 582.9464916365853Q1573.886627972211 596.490366072082 1573.886627972211 607.7769281016626Q1573.886627972211 619.0634901312433 1573.886627972211 625.9308067464249Q1573.886627972211 632.7981233616063 1573.886627972211 632.7981233616063L1573.886627972211 632.7981233616063ZM1660.173189516667 634.801090707701L1660.173189516667 634.801090707701Q1643.2910361710124 634.801090707701 1631.177852697012 628.2199122848185Q1619.0328760905336 621.6387338619365 1612.5470770650845 609.716309182802Q1606.0612780396352 597.8256776361452 1606.0612780396352 581.9609045297768L1606.0612780396352 581.9609045297768Q1606.0612780396352 565.8417863635871 1612.6742495949952 553.8875685519749Q1619.2554280178774 541.9333507403628 1631.241438961967 535.288586052525Q1643.1956567735792 528.6438213646875 1659.0604298799476 528.6438213646875L1659.0604298799476 528.6438213646875Q1675.1477549136598 528.6438213646875 1686.7840414004952 535.1614135226143Q1698.3885347548526 541.7107988130189 1704.7153681179134 554.0465342143634Q1711.0422014809742 566.4140627481855 1711.137580878407 583.7413199485277L1711.137580878407 583.7413199485277L1704.429229925614 585.7442872946222L1625.2961231886388 585.7442872946222Q1625.5186751159827 603.6438208795628 1635.7560637737995 613.7858301399465Q1645.9934524316163 623.959632532808 1662.74843324736 623.959632532808L1662.74843324736 623.959632532808Q1674.3847197341952 623.959632532808 1683.0960380330828 619.3496283235427Q1691.8073563319704 614.7078309817996 1695.9404635540704 603.9617522043397L1695.9404635540704 603.9617522043397L1709.4525448570894 603.9617522043397Q1705.0015063102123 619.2860420585871 1691.9027357294035 627.043566383144Q1678.8357582810722 634.801090707701 1660.173189516667 634.801090707701ZM1625.4232957185495 576.0155887564486L1625.4232957185495 576.0155887564486L1693.0472884986002 576.0155887564486Q1691.6801838020597 558.9108834834502 1682.9052792382167 549.1821849452765Q1674.1621678068514 539.4852795395805 1659.2829818072914 539.4852795395805L1659.2829818072914 539.4852795395805Q1645.0714515897635 539.4852795395805 1636.2011676284872 549.3093574751872Q1627.2990905347333 559.133435410794 1625.4232957185495 576.0155887564486ZM1765.2494923554386 634.2606074555802L1765.2494923554386 634.2606074555802Q1754.8531380352333 634.2606074555802 1749.4165123815483 629.8413620411809Q1744.0116798603406 625.4221166267819 1742.104091911679 617.3784541099258Q1740.1965039630174 609.3347915930697 1740.1965039630174 598.5887128156098L1740.1965039630174 598.5887128156098L1740.1965039630174 541.5836262831081L1721.883659655867 541.5836262831081L1721.883659655867 532.7769285867874Q1725.5716630232794 532.6497560568766 1730.3088397624554 532.2682384671443Q1735.0778096341091 531.886720877412 1738.5750542066553 531.5369964201575Q1742.104091911679 531.1872719629029 1742.104091911679 531.1872719629029L1742.104091911679 531.1872719629029Q1742.23126444159 530.0745123261836 1742.6127820313222 526.2275432963829Q1742.9942996210543 522.3805742665822 1743.439403475742 517.8341563222723Q1743.8845073304296 513.3195315104399 1744.2342317876844 509.91766633532694Q1744.5521631124611 506.4840080277362 1744.5521631124611 506.26145610039237L1744.5521631124611 506.26145610039237L1758.7636933299896 503.3682810449224L1758.7636933299896 531.6641689500682L1785.5970971411616 531.6641689500682L1785.5970971411616 541.5836262831081L1758.8590727274227 541.5836262831081L1758.8590727274227 597.6031257088014Q1758.8590727274227 608.889687738382 1760.0990048940525 615.5980386911749Q1761.3389370606828 622.306389643968 1769.255427047628 622.306389643968L1769.255427047628 622.306389643968Q1772.4983265603528 622.306389643968 1775.137156556001 619.6039733833641Q1777.7441934191716 616.9333502552381 1777.7441934191716 610.224999302445L1777.7441934191716 610.224999302445L1787.917995812033 609.207619063159Q1787.917995812033 622.306389643968 1781.1778517267624 628.2834985497741Q1774.405914509014 634.2606074555802 1765.2494923554386 634.2606074555802ZM1856.2096443741152 633.0206752889501L1836.5614885029017 633.0206752889501L1810.0778091489842 553.7921891545418Q1808.1702212003229 548.0694253085574 1806.8667027687375 545.621354107775Q1805.5949774696298 543.1732829069927 1803.1469062688475 542.5056271249612Q1800.6670419355878 541.8061782104519 1795.0714506195138 541.8061782104519L1795.0714506195138 541.8061782104519L1795.0714506195138 531.6641689500682Q1798.886626516837 531.6641689500682 1802.6382161492047 531.695962082546Q1806.3580126490942 531.7595483475013 1809.8870503541184 531.8231346124567Q1813.416088059142 531.886720877412 1816.309263114612 531.886720877412L1816.309263114612 531.886720877412Q1820.3469909392788 531.886720877412 1826.26051358013 531.7595483475013Q1832.2058293534578 531.6641689500682 1839.0095597036843 531.6641689500682L1839.0095597036843 531.6641689500682Q1839.0095597036843 532.5543766594436 1839.0095597036843 533.8896882235067Q1839.0095597036843 535.2249997875697 1838.9459734387287 536.7192770140213Q1838.9141803062512 538.2453473729504 1838.9141803062512 539.5806589370136Q1838.9141803062512 540.9159705010766 1838.9141803062512 541.8061782104519L1838.9141803062512 541.8061782104519Q1836.2117640456472 541.8061782104519 1834.081624169642 541.7107988130189Q1831.983277426114 541.5836262831081 1830.6161727295735 541.5836262831081L1830.6161727295735 541.5836262831081Q1828.0727221313582 541.5836262831081 1827.2143075544604 542.4420408600058Q1826.3876861100402 543.2686623044258 1826.3876861100402 545.621354107775L1826.3876861100402 545.621354107775Q1826.3876861100402 550.1041857871296 1828.3270671911796 556.7489504749672Q1830.2982414047965 563.3937151628047 1832.2058293534578 569.3072378036554L1832.2058293534578 569.3072378036554Q1834.081624169642 575.3479329744168 1836.5932816353798 583.4551817562283Q1839.1367322335946 591.5624305380397 1841.5212171694216 599.4471273925074Q1843.9374952377261 607.331824246975 1845.5589449940885 612.6730705032273Q1847.180394750451 618.0461098919573 1847.275774147884 618.4912137466449L1847.275774147884 618.4912137466449L1872.4241419377386 539.8032108643574L1895.9192668387527 539.8032108643574L1920.2728063166646 619.2860420585871Q1920.2728063166646 619.2860420585871 1921.7670835431163 614.1991408621566Q1923.2931539020456 609.1122396657258 1925.6776388378726 601.0049908839144Q1928.0939169061767 592.8977421021029 1930.8281262992582 583.804906213483Q1933.5623356923397 574.6802771923853 1936.0739931580774 566.4140627481855Q1938.5856506238156 558.1478483039856 1940.2071003801775 552.6476363853449Q1941.82855013654 547.1792175991819 1942.0511020638837 546.7341137444942L1942.0511020638837 546.7341137444942Q1942.2736539912275 545.9710785650295 1942.4008265211382 545.4623884453865Q1942.527999051049 544.9536983257435 1942.623378448482 544.3814219411449L1942.623378448482 544.3814219411449Q1942.527999051049 542.5056271249612 1939.6030308631016 542.1559026677066Q1936.7098558076314 541.8061782104519 1929.333849072807 541.8061782104519L1929.333849072807 541.8061782104519L1929.333849072807 531.6641689500682Q1934.0074395470278 531.6641689500682 1938.8717888161145 531.7595483475013Q1943.7361380852012 531.886720877412 1948.4415216918997 531.886720877412L1948.4415216918997 531.886720877412Q1954.0371130079739 531.886720877412 1959.5055317941365 531.7595483475013Q1964.9739505802995 531.6641689500682 1970.4423693664626 531.6641689500682L1970.4423693664626 531.6641689500682L1970.4423693664626 541.8061782104519Q1965.4190544349872 541.8061782104519 1962.8120175718168 542.2512820651397Q1960.173187576168 542.728179052305 1958.6789103497167 544.5721807360112Q1957.1528399907875 546.4161824197173 1955.8175284267245 550.6446690392504Q1954.482216862661 554.904948791261 1951.9069731319682 562.5035074534294L1951.9069731319682 562.5035074534294L1928.7615726882082 633.0206752889501L1909.304175611861 633.0206752889501L1882.8204962579434 547.8468733812134L1856.2096443741152 633.0206752889501ZM2032.3753914330064 634.801090707701L2032.3753914330064 634.801090707701Q2016.6059977240711 634.801090707701 2004.651779912459 628.2199122848185Q1992.6975621008469 621.6387338619365 1985.9256248830989 609.716309182802Q1979.185480797828 597.8256776361452 1979.185480797828 581.738352602433L1979.185480797828 581.738352602433Q1979.185480797828 565.6192344362432 1985.9256248830989 553.6650166246311Q1992.6975621008469 541.7107988130189 2004.7153661774146 535.1614135226143Q2016.7331702539818 528.6438213646875 2032.3753914330064 528.6438213646875L2032.3753914330064 528.6438213646875Q2048.1447851419416 528.6438213646875 2060.1625892185093 535.1614135226143Q2072.180393295077 541.7107988130189 2078.9841236453026 553.6014303596758Q2085.8196471280066 565.5238550388101 2085.8196471280066 581.738352602433L2085.8196471280066 581.738352602433Q2085.8196471280066 597.6985051062343 2079.047709910258 609.6527229178466Q2072.27577269251 621.6387338619365 2060.2579686159424 628.2199122848185Q2048.2401645393747 634.801090707701 2032.3753914330064 634.801090707701ZM2032.3753914330064 623.1965973533433L2032.3753914330064 623.1965973533433Q2047.795060684687 623.1965973533433 2057.0786553681733 611.9100353237627Q2066.362250051659 600.6234732941821 2066.362250051659 581.6111800725223L2066.362250051659 581.6111800725223Q2066.362250051659 562.5035074534294 2057.1422416331284 551.3123248212819Q2047.9222332145978 540.152935321612 2032.3753914330064 540.152935321612L2032.3753914330064 540.152935321612Q2016.8285496514154 540.152935321612 2007.67212749784 551.2805316888041Q1998.5157053442645 562.3763349235187 1998.5157053442645 581.6111800725223L1998.5157053442645 581.6111800725223Q1998.5157053442645 600.6234732941821 2007.67212749784 611.9100353237627Q2016.8285496514154 623.1965973533433 2032.3753914330064 623.1965973533433ZM2100.221936140401 631.6853637248871L2100.221936140401 631.6853637248871L2100.221936140401 621.5115613320256Q2108.8378750418556 621.5115613320256 2112.3987058793573 620.9392849474273Q2115.9913298493366 620.3988016953065 2116.7543650288007 618.8409382038994Q2117.549193340743 617.2512815800148 2117.549193340743 614.2627271271119L2117.549193340743 614.2627271271119L2117.549193340743 546.7341137444942Q2117.549193340743 542.8235584497381 2114.4652594904073 542.219488932662Q2111.413118772549 541.5836262831081 2100.7942125249997 541.5836262831081L2100.7942125249997 541.5836262831081L2100.7942125249997 531.6641689500682Q2102.447455413839 531.6641689500682 2106.199045046207 531.6641689500682Q2109.9506346785747 531.6641689500682 2113.1935341912995 531.695962082546Q2116.4364337040242 531.7595483475013 2116.4364337040242 531.7595483475013L2116.4364337040242 531.7595483475013Q2121.0146447808115 531.7595483475013 2125.815407784943 531.5369964201575Q2130.6161707890747 531.3144444928137 2135.6712788530276 531.1872719629029L2135.6712788530276 531.1872719629029L2135.6712788530276 551.5348767486257Q2141.01252510928 541.1385224284204 2150.6458442500207 535.2249997875697Q2160.2473702582834 529.311477146719 2173.218968309182 529.311477146719L2173.218968309182 529.311477146719Q2178.2422832406573 529.311477146719 2183.3927707020434 529.9791329287506L2183.3927707020434 529.9791329287506L2183.3927707020434 554.3326724066626Q2181.7077346807255 554.3326724066626 2180.022698659408 554.3326724066626Q2178.33766263809 554.3326724066626 2176.68441974925 554.3326724066626L2176.68441974925 554.3326724066626Q2174.4271073433342 548.9596330179327 2171.152414698132 545.7803197701635Q2167.845928920452 542.6010065223943 2161.9324062796013 542.6010065223943L2161.9324062796013 542.6010065223943Q2150.9637755747976 542.6010065223943 2143.873907032272 552.8701883126887Q2136.7840384897468 563.1711632354609 2136.561486562403 579.4810401965169L2136.561486562403 579.4810401965169Q2136.561486562403 579.4810401965169 2136.561486562403 583.0100779015406Q2136.561486562403 586.5391156065646 2136.561486562403 591.7213962004282Q2136.561486562403 596.9354699267697 2136.561486562403 602.2449230505442Q2136.561486562403 607.5543761743188 2136.561486562403 611.2423795417312Q2136.561486562403 614.9303829091434 2136.561486562403 615.2483142339204L2136.561486562403 615.2483142339204Q2136.561486562403 620.049077238052 2140.694593784503 620.7803192850388Q2144.827701006603 621.5115613320256 2155.6691591814956 621.5115613320256L2155.6691591814956 621.5115613320256L2155.6691591814956 631.6853637248871Q2148.611083771448 631.6853637248871 2141.9027328186553 631.5581911949764Q2135.1943818658624 631.4628117975433 2125.5928558575993 631.4628117975433L2125.5928558575993 631.4628117975433Q2117.326641413399 631.4628117975433 2111.794636362281 631.5581911949764Q2106.2626313111627 631.6853637248871 2100.221936140401 631.6853637248871ZM2187.0807740694554 631.6853637248871L2187.0807740694554 631.6853637248871L2187.0807740694554 621.5115613320256Q2196.5869206802854 621.2890094046818 2200.433889710086 620.3352154303511Q2204.2808587398868 619.3814214560202 2204.2808587398868 613.9130026698572L2204.2808587398868 613.9130026698572Q2204.2808587398868 613.9130026698572 2204.2808587398868 607.8723074990958Q2204.2808587398868 601.8316123283344 2204.2808587398868 591.943948127772Q2204.2808587398868 582.05628392721 2204.2808587398868 570.1974455130307Q2204.2808587398868 558.3704002313295 2204.2808587398868 546.5115618171503Q2204.2808587398868 534.6527234029713 2204.2808587398868 524.765059202409Q2204.2808587398868 514.8773950018469 2204.2808587398868 508.8366998310854Q2204.2808587398868 502.79600466032394 2204.2808587398868 502.79600466032394L2204.2808587398868 502.79600466032394Q2204.2808587398868 498.56751804079096 2200.274924047698 497.9952416561925Q2196.237196223031 497.4547584040717 2187.621257321576 497.32758587416095L2187.621257321576 497.32758587416095L2187.621257321576 487.28095601121026Q2189.878569727492 487.28095601121026 2191.9451233385425 487.28095601121026Q2194.011676949592 487.28095601121026 2195.8874717657764 487.28095601121026Q2197.7950597144377 487.28095601121026 2199.5436820007108 487.28095601121026Q2201.2605111545063 487.28095601121026 2202.945547175824 487.28095601121026L2202.945547175824 487.28095601121026Q2208.413965961987 487.1537834812995 2213.1193495686853 487.05840408386644Q2217.8247331753837 486.9312315539557 2222.9434275042922 486.83585215652255L2222.9434275042922 486.83585215652255L2222.9434275042922 576.2381406837924L2253.1151102256217 553.569637227198Q2258.7107015416955 549.4047368726203 2261.5720834646877 546.6705274795388Q2264.4334653876804 543.9363180864573 2264.4334653876804 542.8235584497381L2264.4334653876804 542.8235584497381Q2264.4334653876804 542.0287301377957 2262.9073950287507 541.7107988130189Q2261.4131178022994 541.3610743557642 2258.837874071606 541.3292812232866Q2256.2626303409133 541.2656949583312 2253.2422827555324 541.2656949583312L2253.2422827555324 541.2656949583312L2253.592007212787 531.6641689500682Q2259.378357323727 531.7595483475013 2263.924775268037 531.8231346124567Q2268.4394000798693 531.886720877412 2272.2545759771924 531.886720877412L2272.2545759771924 531.886720877412Q2278.4860299428196 531.886720877412 2285.09900149818 531.8231346124567Q2291.680179921062 531.7595483475013 2300.2007394250836 531.6641689500682L2300.2007394250836 531.6641689500682L2300.2007394250836 541.488246885675Q2298.7382553311095 541.488246885675 2297.4983231644796 541.488246885675Q2296.25839099785 541.488246885675 2295.1456313611307 541.5836262831081L2295.1456313611307 541.5836262831081Q2291.584800523629 541.7107988130189 2289.1049361903692 542.4420408600058Q2286.6568649895867 543.1732829069927 2283.318586079429 545.4941815778643Q2279.9485140367938 547.8468733812134 2273.3673356139116 552.6476363853449L2273.3673356139116 552.6476363853449L2241.955720725952 575.9202093590154L2285.5441053528675 615.8205906185187Q2289.5818331775345 619.5085939859312 2292.7611464253037 620.557767357695Q2295.940459673073 621.6387338619365 2299.6284630404853 621.6387338619365L2299.6284630404853 621.6387338619365Q2300.868395207115 621.6387338619365 2302.1401205062225 621.575147596981Q2303.4118458053304 621.5115613320256 2304.874329899304 621.5115613320256L2304.874329899304 621.5115613320256L2304.874329899304 631.6853637248871Q2301.3134990618028 631.6853637248871 2297.6572888268684 631.6217774599318Q2294.032871724411 631.5581911949764 2290.2812820920435 631.5263980624986Q2286.5614855921535 631.4628117975433 2282.4283783700535 631.4628117975433L2282.4283783700535 631.4628117975433Q2274.257543323287 631.4628117975433 2267.8989168277485 631.5581911949764Q2261.5084971997326 631.6853637248871 2254.4822149221627 631.6853637248871L2254.4822149221627 631.6853637248871L2254.4822149221627 621.5115613320256Q2256.358009738346 621.5115613320256 2257.8840800972753 621.5115613320256Q2259.378357323727 621.5115613320256 2260.491116960446 621.4161819345925L2260.491116960446 621.4161819345925Q2265.4190524944884 621.2890094046818 2265.4190524944884 619.731145913275L2265.4190524944884 619.731145913275Q2265.4190524944884 618.4912137466449 2263.797602738126 616.7743845928496Q2262.176152981764 615.0257623065766 2259.5055298536377 612.5776911057942L2259.5055298536377 612.5776911057942L2227.7441905084233 583.6141474186168L2222.9434275042922 586.7616675339084L2222.9434275042922 614.0401751997681Q2222.9434275042922 618.7137656739887 2226.1227407520614 620.1126635030073Q2229.333847132308 621.5115613320256 2240.397857234545 621.5115613320256L2240.397857234545 621.5115613320256L2240.397857234545 631.6853637248871Q2234.5797139911274 631.6853637248871 2228.539018820366 631.6217774599318Q2222.4983236496046 631.5581911949764 2214.899764987436 631.4628117975433L2214.899764987436 631.4628117975433Q2214.3592817353156 631.4628117975433 2211.052795957635 631.5263980624986Q2207.7463101799553 631.5581911949764 2203.1680991031676 631.5581911949764Q2198.58988802638 631.5581911949764 2194.170642611981 631.6217774599318Q2189.751397197582 631.6853637248871 2187.0807740694554 631.6853637248871ZM2423.462714041095 633.147847818861L2403.56021311006 633.147847818861L2355.1710654790127 511.76166801903304Q2352.7229942782305 505.5938003183608 2350.94257885948 502.8595909252793Q2349.1303703082517 500.1253815321978 2345.855677663049 499.3305532202555Q2342.549191885369 498.56751804079096 2335.6182890052323 498.56751804079096L2335.6182890052323 498.56751804079096L2335.6182890052323 487.5035079385541Q2338.2889121333583 487.5988873359872 2341.3728459836943 487.726059865898Q2344.456779834031 487.821439263331 2347.5089205518893 487.88502552828646Q2350.592854402225 487.9486117932418 2353.2634775303513 487.9486117932418L2353.2634775303513 487.9486117932418Q2356.633549572987 487.9486117932418 2362.7378310087033 487.88502552828646Q2368.8103193119427 487.821439263331 2375.2325320724362 487.726059865898Q2381.65474483293 487.5988873359872 2386.137576512285 487.5670942035095Q2390.6204081916394 487.5035079385541 2390.6204081916394 487.5035079385541L2390.6204081916394 487.5035079385541L2390.6204081916394 498.56751804079096Q2381.781917362841 498.56751804079096 2377.426258213397 499.1715875578671Q2373.0705990639535 499.8074502074209 2373.0705990639535 503.718005502177L2373.0705990639535 503.718005502177Q2373.0705990639535 506.1660767029593 2374.6284625553603 510.0766319977154L2374.6284625553603 510.0766319977154Q2374.7238419527935 510.29918392505925 2376.917568093754 515.9901546385661Q2379.111294234715 521.7129184845506 2382.735711337172 530.964720035559Q2386.3601284396286 540.2483147190451 2390.652201324117 551.2805316888041Q2394.9760673410833 562.2809555260856 2399.2045539606165 573.281379363367Q2403.464833712627 584.2818032006485 2407.0892508150837 593.5018116191791Q2410.7136679175405 602.7218200377097 2412.9073940585017 608.4445838836943Q2415.101120199462 614.1355545972012 2415.1964995968956 614.3581065245451L2415.1964995968956 614.3581065245451L2453.3164654376483 510.42635645497Q2454.333845676934 507.6285607969331 2454.93791519401 505.72097284827163Q2455.541984711086 503.81338489961007 2455.541984711086 502.478073335547L2455.541984711086 502.478073335547Q2455.541984711086 499.8074502074209 2452.87136158296 499.1715875578671Q2450.1689453223566 498.56751804079096 2444.0328707541616 498.56751804079096L2444.0328707541616 498.56751804079096Q2442.5703866601884 498.56751804079096 2440.7899712414373 498.56751804079096Q2439.0095558226867 498.56751804079096 2437.101967874025 498.56751804079096L2437.101967874025 498.56751804079096L2437.101967874025 487.5035079385541Q2437.101967874025 487.5035079385541 2440.281281121794 487.5670942035095Q2443.492387502041 487.5988873359872 2448.0070123138735 487.6624736009426Q2452.5216371257056 487.726059865898 2456.718330612761 487.7896461308533Q2460.9150240998165 487.821439263331 2462.822612048478 487.821439263331L2462.822612048478 487.821439263331Q2468.9586866166724 487.821439263331 2475.5716581720326 487.726059865898Q2482.1528365949143 487.5988873359872 2488.734015017797 487.5035079385541L2488.734015017797 487.5035079385541L2488.734015017797 498.56751804079096Q2483.0430443042897 498.56751804079096 2479.704765394132 499.2987600877778Q2476.334693351497 500.03000213476474 2473.95020841567 502.79600466032394Q2471.533930347365 505.5938003183608 2468.9586866166724 511.79346115151077Q2466.383442885979 518.0249151171383 2462.3775081937897 528.9617526894644L2462.3775081937897 528.9617526894644L2423.462714041095 633.147847818861ZM2596.3855615872617 631.6853637248871L2501.7056130686947 631.6853637248871Q2501.610233671262 630.572604088168 2501.610233671262 629.3326719215379Q2501.610233671262 628.0927397549078 2501.610233671262 626.8846007207555L2501.610233671262 626.8846007207555Q2501.610233671262 611.782862793852 2505.965892820706 600.8778183540035Q2510.32155197015 590.0045670466329 2518.015490029751 581.6747663374776Q2525.74122122183 573.3449656283224 2535.787851084781 566.1915108208417Q2545.8662740802088 559.038056013361 2557.3753880371337 551.4394973511926L2557.3753880371337 551.4394973511926Q2564.4016703147036 546.7341137444942 2569.011674523969 542.3784545950505Q2573.5898856007566 538.0227954456066 2575.8789911391505 532.9358942491758Q2578.1680966775443 527.8489930527452 2578.1680966775443 521.363194027296L2578.1680966775443 521.363194027296Q2578.1680966775443 509.7269075404608 2570.0608478957324 502.8595909252793Q2561.9535991139214 495.99227431009786 2549.109173592934 495.99227431009786L2549.109173592934 495.99227431009786Q2530.9870880806493 495.99227431009786 2524.4059096577666 503.81338489961007Q2517.7929381024073 511.63449548912234 2517.697558704974 525.8460257066506L2517.697558704974 525.8460257066506L2504.94851258142 525.4963012493961L2504.94851258142 498.12241418610324Q2513.214727025619 491.5094426307433 2524.4694959227227 488.17116372058564Q2535.6924716873477 484.8010916779503 2552.2249005757476 484.8010916779503L2552.2249005757476 484.8010916779503Q2573.2401611435016 484.8010916779503 2584.8128613653817 494.94310093833406Q2596.3855615872617 505.0533170662401 2596.3855615872617 523.2707819759576L2596.3855615872617 523.2707819759576Q2596.3855615872617 534.4301714756275 2591.6483848480857 541.8697644754074Q2586.8794149764317 549.3093574751872 2577.277888968169 556.2402603553242Q2567.644569827428 563.1711632354609 2553.01972888769 572.8998617736347L2553.01972888769 572.8998617736347Q2539.603026982104 581.8337319998661 2532.163433982324 589.8138082517669Q2524.723840982544 597.8256776361452 2521.8306659270743 605.0427187085811Q2518.937490871604 612.2279666485397 2518.937490871604 618.8409382038994L2518.937490871604 618.8409382038994L2577.055337040825 618.8409382038994Q2580.743340408237 618.8409382038994 2582.301203899644 616.710798327894Q2583.859067391051 614.5806584518889 2584.2405849807833 608.158445691395Q2584.6538957029934 601.7362329309012 2584.6538957029934 589.1143593372576L2584.6538957029934 589.1143593372576L2596.3855615872617 589.1143593372576L2596.3855615872617 631.6853637248871Z " fill="#222222" transform="matrix(0.3370069710085176,0,0,0.3370069710085176,0,111.34313053992845)"/></g></svg>